. 
  
http://www.torrentday.com/        :     The Hottest Private Tracker On The Net!!!


               www . TorrentDay . Com 
(((((((((((((= Enjoy No RAR releases =))))))))))))))))))))


...................................NFO:....................................

.*******************************************************************************
                    Rosemarys.Baby.1968.DVDRip.AC3.X264-BARC0DE
*******************************************************************************

-------------------------------------------------------------------------------
                              General Information
-------------------------------------------------------------------------------
Type.................: Movie
Name.................: Rosemary's Baby
Movie Information....: http://www.imdb.com/title/tt0063522/
Genre................: Drama | Horror | Mystery | Thriller
-------------------------------------------------------------------------------
                                    PLOT
-------------------------------------------------------------------------------
A young couple move into a new apartment, only to be surrounded by peculiar 
neighbors and occurrences. When the wife becomes mysteriously pregnant, paranoia 
over the safety of her unborn child begins controlling her life.

-------------------------------------------------------------------------------
                                    CAST
-------------------------------------------------------------------------------
Mia Farrow	... 	Rosemary Woodhouse
John Cassavetes	... 	Guy Woodhouse
Ruth Gordon	... 	Minnie Castevet
Sidney Blackmer	... 	Roman Castevet
Maurice Evans	... 	Edward 'Hutch' Hutchins
Ralph Bellamy	... 	Dr. Abraham Sapirstein
Victoria Vetri	... 	Terry Gionoffrio (as Angela Dorian)
Patsy Kelly	... 	Laura-Louise McBirney
Elisha Cook Jr.	... 	Mr. Nicklas (as Elisha Cook)
Emmaline Henry	... 	Elise Dunstan
Charles Grodin	... 	Dr. C.C. Hill

-------------------------------------------------------------------------------
                                    MEDiA iNFO
-------------------------------------------------------------------------------

General
Complete name                    : Rosemarys.Baby.1968.DVDRip.AC3.X264-BARC0DE.mkv
Format                           : Matroska
File size                        : 1.48 GiB
Duration                         : 2h 11mn
Overall bit rate                 : 1 612 Kbps

Video
ID                               : 1
Format                           : AVC
Format/Info                      : Advanced Video Codec
Format profile                   : High@L3.0
Format settings, CABAC           : Yes
Format settings, ReFrames        : 3 frames
Muxing mode                      : Container profile=Unknown@3.0
Codec ID                         : V_MPEG4/ISO/AVC
Duration                         : 2h 11mn
Bit rate                         : 1 400 Kbps
Width                            : 720 pixels
Height                           : 384 pixels
Display aspect ratio             : 1.875
Frame rate                       : 25.000 fps
Color space                      : YUV
Chroma subsampling               : 4:2:0
Bit depth                        : 8 bits
Scan type                        : Progressive
Bits/(Pixel*Frame)               : 0.203
Stream size                      : 1.27 GiB (86%)
Writing library                  : x264 core 79

Audio
ID                               : 2
Format                           : AC-3
Format/Info                      : Audio Coding 3
Mode extension                   : CM (complete main)
Codec ID                         : A_AC3
Duration                         : 2h 11mn
Bit rate mode                    : Constant
Bit rate                         : 192 Kbps
Channel(s)                       : 2 channels
Channel positions                : Front: L R
Sampling rate                    : 48.0 KHz
Stream size                      : 180 MiB (12%)
Language                         : English

Text #1
ID                               : 3
Format                           : VobSub
Codec ID                         : S_VOBSUB
Codec ID/Info                    : The same subtitle format used on DVDs
Language                         : English

Text #2
ID                               : 4
Format                           : VobSub
Codec ID                         : S_VOBSUB
Codec ID/Info                    : The same subtitle format used on DVDs
Language                         : German

Text #3
ID                               : 5
Format                           : VobSub
Codec ID                         : S_VOBSUB
Codec ID/Info                    : The same subtitle format used on DVDs
Language                         : Turkish

Menu
00:00:00.000                     : Chapter 1
00:02:14.480                     : Chapter 2
00:06:44.880                     : Chapter 3
00:08:15.080                     : Chapter 4
00:12:06.240                     : Chapter 5
00:19:15.440                     : Chapter 6
00:29:07.440                     : Chapter 7
00:32:10.720                     : Chapter 8
00:34:55.560                     : Chapter 9
00:37:27.760                     : Chapter 10
00:40:20.680                     : Chapter 11
00:47:57.360                     : Chapter 12
00:53:03.640                     : Chapter 13
00:56:40.760                     : Chapter 14
00:59:08.640                     : Chapter 15
01:07:07.160                     : Chapter 16
01:10:24.080                     : Chapter 17
01:11:34.880                     : Chapter 18
01:16:56.000                     : Chapter 19
01:19:45.680                     : Chapter 20
01:20:43.120                     : Chapter 21
01:21:27.280                     : Chapter 22
01:24:44.240                     : Chapter 23
01:29:52.680                     : Chapter 24
01:31:53.080                     : Chapter 25
01:35:05.412                     : Chapter 26
01:37:46.452                     : Chapter 27
01:46:58.812                     : Chapter 28
01:53:16.612                     : Chapter 29
01:57:37.332                     : Chapter 30
02:00:02.692                     : Chapter 31
02:10:31.212                     : Chapter 32